<?xml version="1.0" encoding="UTF-8" standalone="no"?>
<!-- Created with Inkscape (http://www.inkscape.org/) -->

<svg
   xmlns:dc="http://purl.org/dc/elements/1.1/"
   xmlns:cc="http://creativecommons.org/ns#"
   xmlns:rdf="http://www.w3.org/1999/02/22-rdf-syntax-ns#"
   xmlns:svg="http://www.w3.org/2000/svg"
   xmlns="http://www.w3.org/2000/svg"
   xmlns:sodipodi="http://sodipodi.sourceforge.net/DTD/sodipodi-0.dtd"
   xmlns:inkscape="http://www.inkscape.org/namespaces/inkscape"
   width="1024"
   height="1024"
   id="svg2"
   version="1.1"
   inkscape:version="0.48.4 r9939"
   sodipodi:docname="dash.svg"
   inkscape:export-filename="C:\werk\orthos\data\placeholder\card\dash.png"
   inkscape:export-xdpi="90"
   inkscape:export-ydpi="90">
  <defs
     id="defs4" />
  <sodipodi:namedview
     id="base"
     pagecolor="#ffffff"
     bordercolor="#666666"
     borderopacity="1.0"
     inkscape:pageopacity="0.0"
     inkscape:pageshadow="2"
     inkscape:zoom="0.32128906"
     inkscape:cx="-310.94704"
     inkscape:cy="160.67077"
     inkscape:document-units="px"
     inkscape:current-layer="layer4"
     showgrid="false"
     inkscape:window-width="1671"
     inkscape:window-height="1137"
     inkscape:window-x="1887"
     inkscape:window-y="136"
     inkscape:window-maximized="0" />
  <metadata
     id="metadata7">
    <rdf:RDF>
      <cc:Work
         rdf:about="">
        <dc:format>image/svg+xml</dc:format>
        <dc:type
           rdf:resource="http://purl.org/dc/dcmitype/StillImage" />
        <dc:title></dc:title>
      </cc:Work>
    </rdf:RDF>
  </metadata>
  <g
     inkscape:label="Layer 1"
     inkscape:groupmode="layer"
     id="layer1"
     sodipodi:insensitive="true">
    <path
       style="fill:#000000;fill-opacity:0.55491327;stroke:none"
       d="m 977.14283,134.74205 c 0,13.82246 -461.11206,25.70844 -475.71427,25.02778 -14.60221,-0.68067 -475.714266,-11.20532 -475.714266,-25.02778 0,-13.82245 471.213576,-25.02777 475.714266,-25.02777 4.50069,0 475.71427,11.20532 475.71427,25.02777 z"
       id="path4564"
       inkscape:connector-curvature="0"
       sodipodi:nodetypes="szszs" />
    <path
       style="fill:#000000;fill-opacity:0.55491327;stroke:none"
       d="m 1111.6076,225.236 c 0,13.82246 -461.11203,25.70844 -475.71424,25.02778 -14.60221,-0.68067 -475.71428,-11.20532 -475.71428,-25.02778 0,-13.82245 471.21359,-25.02777 475.71428,-25.02777 4.50069,0 475.71424,11.20532 475.71424,25.02777 z"
       id="path4564-1"
       inkscape:connector-curvature="0"
       sodipodi:nodetypes="szszs" />
    <path
       style="fill:#000000;fill-opacity:0.55491327;stroke:none"
       d="m 768.65852,615.88443 c 0,13.82246 -461.11207,25.70844 -475.71428,25.02778 -14.60221,-0.68067 -475.71427,-11.20532 -475.71427,-25.02778 0,-13.82245 471.21358,-25.02777 475.71427,-25.02777 4.50069,0 475.71428,11.20532 475.71428,25.02777 z"
       id="path4564-4"
       inkscape:connector-curvature="0"
       sodipodi:nodetypes="szszs" />
    <path
       style="fill:#000000;fill-opacity:0.55491327;stroke:none"
       d="m 770.67882,413.85392 c 0,13.82246 -461.11206,25.70844 -475.71427,25.02778 -14.60221,-0.68067 -475.71427,-11.20532 -475.71427,-25.02778 0,-13.82245 471.21358,-25.02777 475.71427,-25.02777 4.50069,0 475.71427,11.20532 475.71427,25.02777 z"
       id="path4564-2"
       inkscape:connector-curvature="0"
       sodipodi:nodetypes="szszs" />
    <path
       style="fill:#000000;fill-opacity:0.55491327;stroke:none"
       d="m 1053.5215,543.15345 c 0,13.82246 -461.11204,25.70844 -475.71425,25.02778 -14.60221,-0.68067 -475.71427,-11.20532 -475.71427,-25.02778 0,-13.82245 471.21358,-25.02777 475.71427,-25.02777 4.50069,0 475.71425,11.20532 475.71425,25.02777 z"
       id="path4564-3"
       inkscape:connector-curvature="0"
       sodipodi:nodetypes="szszs" />
    <path
       style="fill:#000000;fill-opacity:0.55491327;stroke:none"
       d="m 1253.5317,345.16355 c 0,13.82246 -461.11203,25.70844 -475.71424,25.02778 -14.60221,-0.68067 -475.71427,-11.20532 -475.71427,-25.02778 0,-13.82245 471.21358,-25.02777 475.71427,-25.02777 4.50069,0 475.71424,11.20532 475.71424,25.02777 z"
       id="path4564-22"
       inkscape:connector-curvature="0"
       sodipodi:nodetypes="szszs" />
    <path
       style="fill:#000000;fill-opacity:0.55491327;stroke:none"
       d="m 1142.4149,809.83372 c 0,13.82246 -461.11201,25.70844 -475.71422,25.02778 -14.60221,-0.68067 -475.71427,-11.20532 -475.71427,-25.02778 0,-13.82245 471.21358,-25.02777 475.71427,-25.02777 4.50069,0 475.71422,11.20532 475.71422,25.02777 z"
       id="path4564-16"
       inkscape:connector-curvature="0"
       sodipodi:nodetypes="szszs" />
    <path
       style="fill:#000000;fill-opacity:0.55491327;stroke:none"
       d="m 845.43005,951.25508 c 0,13.82246 -461.11201,25.70844 -475.71422,25.02778 -14.60221,-0.68067 -475.71427,-11.20532 -475.71427,-25.02778 0,-13.82245 471.21358,-25.02777 475.71427,-25.02777 4.50069,0 475.71422,11.20532 475.71422,25.02777 z"
       id="path4564-8"
       inkscape:connector-curvature="0"
       sodipodi:nodetypes="szszs" />
    <path
       style="fill:#000000;fill-opacity:0.55491327;stroke:none"
       d="m 724.2118,722.9606 c 0,13.82246 -461.11206,25.70844 -475.71427,25.02778 -14.60221,-0.68067 -475.71427,-11.20532 -475.71427,-25.02778 0,-13.82245 471.21358,-25.02777 475.71427,-25.02777 4.50069,0 475.71427,11.20532 475.71427,25.02777 z"
       id="path4564-5"
       inkscape:connector-curvature="0"
       sodipodi:nodetypes="szszs" />
    <path
       style="fill:#000000;fill-opacity:0.55491327;stroke:none"
       d="m 1176.7601,884.58501 c 0,13.82246 -461.11202,25.70844 -475.71423,25.02778 -14.60221,-0.68067 -475.71427,-11.20532 -475.71427,-25.02778 0,-13.82245 471.21358,-25.02777 475.71427,-25.02777 4.50069,0 475.71423,11.20532 475.71423,25.02777 z"
       id="path4564-7"
       inkscape:connector-curvature="0"
       sodipodi:nodetypes="szszs" />
    <path
       style="fill:#000000;fill-opacity:0.55491327;stroke:none"
       d="m 1229.2881,674.47328 c 0,13.82246 -461.11209,25.70844 -475.7143,25.02778 -14.60221,-0.68067 -475.71427,-11.20532 -475.71427,-25.02778 0,-13.82245 471.21358,-25.02777 475.71427,-25.02777 4.50069,0 475.7143,11.20532 475.7143,25.02777 z"
       id="path4564-6"
       inkscape:connector-curvature="0"
       sodipodi:nodetypes="szszs" />
    <path
       style="fill:#000000;fill-opacity:0.55491327;stroke:none"
       d="m 530.65548,-151.98639 c 0,13.82246 -461.112101,25.70844 -475.714311,25.02778 -14.60221,-0.68067 -475.714269,-11.20532 -475.714269,-25.02778 0,-13.82245 471.213579,-25.02777 475.714269,-25.02777 4.50069,0 475.714311,11.20532 475.714311,25.02777 z"
       id="path4564-43"
       inkscape:connector-curvature="0"
       sodipodi:nodetypes="szszs" />
    <path
       style="fill:#000000;fill-opacity:0.55491327;stroke:none"
       d="m 665.12018,-61.492439 c 0,13.82246 -461.112,25.70844 -475.7142,25.02778 -14.6022,-0.68067 -475.71429,-11.20532 -475.71429,-25.02778 0,-13.82245 471.21359,-25.02777 475.71429,-25.02777 4.5007,0 475.7142,11.20532 475.7142,25.02777 z"
       id="path4564-1-1"
       inkscape:connector-curvature="0"
       sodipodi:nodetypes="szszs" />
    <path
       style="fill:#000000;fill-opacity:0.55491327;stroke:none"
       d="m 322.17108,329.15599 c 0,13.82246 -461.11202,25.70844 -475.71423,25.02778 -14.60221,-0.68067 -475.71427,-11.20532 -475.71427,-25.02778 0,-13.82245 471.21358,-25.02777 475.71427,-25.02777 4.50069,0 475.71423,11.20532 475.71423,25.02777 z"
       id="path4564-4-2"
       inkscape:connector-curvature="0"
       sodipodi:nodetypes="szszs" />
    <path
       style="fill:#000000;fill-opacity:0.55491327;stroke:none"
       d="m 324.19138,127.12548 c 0,13.82246 -461.11201,25.70844 -475.71422,25.02778 -14.60221,-0.68067 -475.71427,-11.20532 -475.71427,-25.02778 0,-13.82245 471.21358,-25.02777 475.71427,-25.02777 4.50069,0 475.71422,11.20532 475.71422,25.02777 z"
       id="path4564-2-3"
       inkscape:connector-curvature="0"
       sodipodi:nodetypes="szszs" />
    <path
       style="fill:#000000;fill-opacity:0.55491327;stroke:none"
       d="m 607.03408,256.42501 c 0,13.82246 -461.112,25.70844 -475.7142,25.02778 -14.6022,-0.68067 -475.71429,-11.20532 -475.71429,-25.02778 0,-13.82245 471.21359,-25.02777 475.71429,-25.02777 4.5007,0 475.7142,11.20532 475.7142,25.02777 z"
       id="path4564-3-3"
       inkscape:connector-curvature="0"
       sodipodi:nodetypes="szszs" />
    <path
       style="fill:#000000;fill-opacity:0.55491327;stroke:none"
       d="m 807.04428,58.435111 c 0,13.82246 -461.112,25.70844 -475.7142,25.02778 -14.6022,-0.68067 -475.71428,-11.20532 -475.71428,-25.02778 0,-13.82245 471.21358,-25.02777 475.71428,-25.02777 4.5007,0 475.7142,11.20532 475.7142,25.02777 z"
       id="path4564-22-4"
       inkscape:connector-curvature="0"
       sodipodi:nodetypes="szszs" />
    <path
       style="fill:#000000;fill-opacity:0.55491327;stroke:none"
       d="m 695.92748,523.10528 c 0,13.82246 -461.112,25.70844 -475.7142,25.02778 -14.6022,-0.68067 -475.71426,-11.20532 -475.71426,-25.02778 0,-13.82245 471.21356,-25.02777 475.71426,-25.02777 4.5007,0 475.7142,11.20532 475.7142,25.02777 z"
       id="path4564-16-1"
       inkscape:connector-curvature="0"
       sodipodi:nodetypes="szszs" />
    <path
       style="fill:#000000;fill-opacity:0.55491327;stroke:none"
       d="m 398.94268,664.52662 c 0,13.8225 -461.112031,25.7085 -475.714241,25.0278 -14.60221,-0.6807 -475.714269,-11.2053 -475.714269,-25.0278 0,-13.8224 471.213579,-25.0277 475.714269,-25.0277 4.50069,0 475.714241,11.2053 475.714241,25.0277 z"
       id="path4564-8-1"
       inkscape:connector-curvature="0"
       sodipodi:nodetypes="szszs" />
    <path
       style="fill:#000000;fill-opacity:0.55491327;stroke:none"
       d="m 277.72438,436.23216 c 0,13.82246 -461.11203,25.70844 -475.71424,25.02778 -14.60221,-0.68067 -475.71427,-11.20532 -475.71427,-25.02778 0,-13.82245 471.21358,-25.02777 475.71427,-25.02777 4.50069,0 475.71424,11.20532 475.71424,25.02777 z"
       id="path4564-5-3"
       inkscape:connector-curvature="0"
       sodipodi:nodetypes="szszs" />
    <path
       style="fill:#000000;fill-opacity:0.55491327;stroke:none"
       d="m 730.27268,597.85662 c 0,13.8224 -461.112,25.7084 -475.7142,25.0277 -14.6022,-0.6806 -475.71427,-11.2053 -475.71427,-25.0277 0,-13.8225 471.21357,-25.0278 475.71427,-25.0278 4.5007,0 475.7142,11.2053 475.7142,25.0278 z"
       id="path4564-7-8"
       inkscape:connector-curvature="0"
       sodipodi:nodetypes="szszs" />
    <path
       style="fill:#000000;fill-opacity:0.55491327;stroke:none"
       d="m 782.80068,387.74484 c 0,13.82246 -461.1121,25.70844 -475.7143,25.02778 -14.6022,-0.68067 -475.71424,-11.20532 -475.71424,-25.02778 0,-13.82245 471.21354,-25.02777 475.71424,-25.02777 4.5007,0 475.7143,11.20532 475.7143,25.02777 z"
       id="path4564-6-7"
       inkscape:connector-curvature="0"
       sodipodi:nodetypes="szszs" />
    <path
       style="fill:#000000;fill-opacity:0.55491327;stroke:none"
       d="m 1342.8181,326.82592 c 0,13.82246 -461.11207,25.70844 -475.71428,25.02778 -14.60221,-0.68067 -475.71428,-11.20532 -475.71428,-25.02778 0,-13.82245 471.21359,-25.02777 475.71428,-25.02777 4.50069,0 475.71428,11.20532 475.71428,25.02777 z"
       id="path4564-42"
       inkscape:connector-curvature="0"
       sodipodi:nodetypes="szszs" />
    <path
       style="fill:#000000;fill-opacity:0.55491327;stroke:none"
       d="m 1477.2828,417.31987 c 0,13.82246 -461.112,25.70844 -475.7142,25.02778 -14.60219,-0.68067 -475.71426,-11.20532 -475.71426,-25.02778 0,-13.82245 471.21359,-25.02777 475.71426,-25.02777 4.5007,0 475.7142,11.20532 475.7142,25.02777 z"
       id="path4564-1-7"
       inkscape:connector-curvature="0"
       sodipodi:nodetypes="szszs" />
    <path
       style="fill:#000000;fill-opacity:0.55491327;stroke:none"
       d="m 1134.3338,807.9683 c 0,13.82246 -461.11209,25.70844 -475.7143,25.02778 -14.60221,-0.68067 -475.71427,-11.20532 -475.71427,-25.02778 0,-13.82245 471.21358,-25.02777 475.71427,-25.02777 4.50069,0 475.7143,11.20532 475.7143,25.02777 z"
       id="path4564-4-7"
       inkscape:connector-curvature="0"
       sodipodi:nodetypes="szszs" />
    <path
       style="fill:#000000;fill-opacity:0.55491327;stroke:none"
       d="m 1136.3541,605.93779 c 0,13.82246 -461.11208,25.70844 -475.71429,25.02778 -14.60221,-0.68067 -475.71427,-11.20532 -475.71427,-25.02778 0,-13.82245 471.21358,-25.02777 475.71427,-25.02777 4.50069,0 475.71429,11.20532 475.71429,25.02777 z"
       id="path4564-2-9"
       inkscape:connector-curvature="0"
       sodipodi:nodetypes="szszs" />
    <path
       style="fill:#000000;fill-opacity:0.55491327;stroke:none"
       d="m 1419.1967,735.23732 c 0,13.82246 -461.11198,25.70844 -475.71419,25.02778 -14.60221,-0.68067 -475.71428,-11.20532 -475.71428,-25.02778 0,-13.82245 471.21359,-25.02777 475.71428,-25.02777 4.50069,0 475.71419,11.20532 475.71419,25.02777 z"
       id="path4564-3-31"
       inkscape:connector-curvature="0"
       sodipodi:nodetypes="szszs" />
    <path
       style="fill:#000000;fill-opacity:0.55491327;stroke:none"
       d="m 1619.2069,537.24742 c 0,13.82246 -461.112,25.70844 -475.7142,25.02778 -14.6022,-0.68067 -475.71425,-11.20532 -475.71425,-25.02778 0,-13.82245 471.21355,-25.02777 475.71425,-25.02777 4.5007,0 475.7142,11.20532 475.7142,25.02777 z"
       id="path4564-22-9"
       inkscape:connector-curvature="0"
       sodipodi:nodetypes="szszs" />
    <path
       style="fill:#000000;fill-opacity:0.55491327;stroke:none"
       d="m 1508.0901,1001.9176 c 0,13.8225 -461.112,25.7084 -475.7142,25.0278 -14.6022,-0.6807 -475.71423,-11.2053 -475.71423,-25.0278 0,-13.82246 471.21353,-25.02778 475.71423,-25.02778 4.5007,0 475.7142,11.20532 475.7142,25.02778 z"
       id="path4564-16-8"
       inkscape:connector-curvature="0"
       sodipodi:nodetypes="szszs" />
    <path
       style="fill:#000000;fill-opacity:0.55491327;stroke:none"
       d="m 1211.1053,1143.339 c 0,13.8224 -461.112,25.7084 -475.71421,25.0277 -14.60221,-0.6806 -475.71427,-11.2053 -475.71427,-25.0277 0,-13.8225 471.21358,-25.0278 475.71427,-25.0278 4.50069,0 475.71421,11.2053 475.71421,25.0278 z"
       id="path4564-8-6"
       inkscape:connector-curvature="0"
       sodipodi:nodetypes="szszs" />
    <path
       style="fill:#000000;fill-opacity:0.55491327;stroke:none"
       d="m 1089.8871,915.04447 c 0,13.82246 -461.1121,25.70844 -475.71431,25.02778 -14.60221,-0.68067 -475.71427,-11.20532 -475.71427,-25.02778 0,-13.82245 471.21358,-25.02777 475.71427,-25.02777 4.50069,0 475.71431,11.20532 475.71431,25.02777 z"
       id="path4564-5-5"
       inkscape:connector-curvature="0"
       sodipodi:nodetypes="szszs" />
    <path
       style="fill:#000000;fill-opacity:0.55491327;stroke:none"
       d="m 1542.4353,1076.6689 c 0,13.8224 -461.112,25.7084 -475.7142,25.0278 -14.6022,-0.6807 -475.71424,-11.2054 -475.71424,-25.0278 0,-13.8225 471.21354,-25.0278 475.71424,-25.0278 4.5007,0 475.7142,11.2053 475.7142,25.0278 z"
       id="path4564-7-0"
       inkscape:connector-curvature="0"
       sodipodi:nodetypes="szszs" />
    <path
       style="fill:#000000;fill-opacity:0.55491327;stroke:none"
       d="m 1594.9633,866.55715 c 0,13.82246 -461.112,25.70844 -475.7142,25.02778 -14.6023,-0.68067 -475.71431,-11.20532 -475.71431,-25.02778 0,-13.82245 471.21361,-25.02777 475.71431,-25.02777 4.5006,0 475.7142,11.20532 475.7142,25.02777 z"
       id="path4564-6-2"
       inkscape:connector-curvature="0"
       sodipodi:nodetypes="szszs" />
    <path
       style="fill:#000000;fill-opacity:0.55491327;stroke:none"
       d="m 1462.0162,-206.53462 c 0,13.82246 -461.1121,25.70844 -475.71434,25.02778 -14.6023,-0.68067 -475.71432,-11.20532 -475.71432,-25.02778 0,-13.82245 471.21362,-25.02777 475.71432,-25.02777 4.5006,0 475.71434,11.20532 475.71434,25.02777 z"
       id="path4564-86"
       inkscape:connector-curvature="0"
       sodipodi:nodetypes="szszs" />
    <path
       style="fill:#000000;fill-opacity:0.55491327;stroke:none"
       d="m 1596.4809,-116.04067 c 0,13.82246 -461.112,25.708438 -475.7142,25.027778 -14.6023,-0.68067 -475.71437,-11.205318 -475.71437,-25.027778 0,-13.82245 471.21367,-25.02777 475.71437,-25.02777 4.5006,0 475.7142,11.20532 475.7142,25.02777 z"
       id="path4564-1-0"
       inkscape:connector-curvature="0"
       sodipodi:nodetypes="szszs" />
    <path
       style="fill:#000000;fill-opacity:0.55491327;stroke:none"
       d="m 1253.5318,274.60776 c 0,13.82246 -461.11214,25.70844 -475.71434,25.02778 -14.6022,-0.68067 -475.71424,-11.20532 -475.71424,-25.02778 0,-13.82245 471.21354,-25.02777 475.71424,-25.02777 4.5007,0 475.71434,11.20532 475.71434,25.02777 z"
       id="path4564-4-24"
       inkscape:connector-curvature="0"
       sodipodi:nodetypes="szszs" />
    <path
       style="fill:#000000;fill-opacity:0.55491327;stroke:none"
       d="m 1255.5521,72.577248 c 0,13.82246 -461.11204,25.70844 -475.71434,25.02778 -14.6022,-0.68067 -475.71423,-11.20532 -475.71423,-25.02778 0,-13.82245 471.21363,-25.02777 475.71423,-25.02777 4.5007,0 475.71434,11.20532 475.71434,25.02777 z"
       id="path4564-2-8"
       inkscape:connector-curvature="0"
       sodipodi:nodetypes="szszs" />
    <path
       style="fill:#000000;fill-opacity:0.55491327;stroke:none"
       d="m 1538.3948,201.87678 c 0,13.82246 -461.112,25.70844 -475.7143,25.02778 -14.6022,-0.68067 -475.71427,-11.20532 -475.71427,-25.02778 0,-13.82245 471.21367,-25.02777 475.71427,-25.02777 4.5007,0 475.7143,11.20532 475.7143,25.02777 z"
       id="path4564-3-6"
       inkscape:connector-curvature="0"
       sodipodi:nodetypes="szszs" />
    <path
       style="fill:#000000;fill-opacity:0.55491327;stroke:none"
       d="m 1738.405,3.8868777 c 0,13.8224603 -461.112,25.7084403 -475.7142,25.0277803 -14.6023,-0.68067 -475.71434,-11.20532 -475.71434,-25.0277803 0,-13.82245 471.21364,-25.0277697 475.71434,-25.0277697 4.5007,0 475.7142,11.2053197 475.7142,25.0277697 z"
       id="path4564-22-5"
       inkscape:connector-curvature="0"
       sodipodi:nodetypes="szszs" />
    <path
       style="fill:#000000;fill-opacity:0.55491327;stroke:none"
       d="m 1627.2882,468.55705 c 0,13.8225 -461.112,25.7084 -475.7142,25.0278 -14.6022,-0.6807 -475.71434,-11.2053 -475.71434,-25.0278 0,-13.8225 471.21364,-25.0278 475.71434,-25.0278 4.5007,0 475.7142,11.2053 475.7142,25.0278 z"
       id="path4564-16-0"
       inkscape:connector-curvature="0"
       sodipodi:nodetypes="szszs" />
    <path
       style="fill:#000000;fill-opacity:0.55491327;stroke:none"
       d="m 1330.3034,609.97845 c 0,13.8224 -461.11214,25.7084 -475.71434,25.0277 -14.6022,-0.6806 -475.71425,-11.2053 -475.71425,-25.0277 0,-13.8225 471.21355,-25.0278 475.71425,-25.0278 4.5007,0 475.71434,11.2053 475.71434,25.0278 z"
       id="path4564-8-9"
       inkscape:connector-curvature="0"
       sodipodi:nodetypes="szszs" />
    <path
       style="fill:#000000;fill-opacity:0.55491327;stroke:none"
       d="m 1209.0851,381.68393 c 0,13.82242 -461.11214,25.70842 -475.71434,25.02782 -14.6022,-0.6807 -475.71425,-11.2054 -475.71425,-25.02782 0,-13.82245 471.21355,-25.02777 475.71425,-25.02777 4.5007,0 475.71434,11.20532 475.71434,25.02777 z"
       id="path4564-5-0"
       inkscape:connector-curvature="0"
       sodipodi:nodetypes="szszs" />
    <path
       style="fill:#000000;fill-opacity:0.55491327;stroke:none"
       d="m 1661.6334,543.30835 c 0,13.8224 -461.112,25.7084 -475.7142,25.0278 -14.6022,-0.6807 -475.71434,-11.2054 -475.71434,-25.0278 0,-13.8225 471.21364,-25.0278 475.71434,-25.0278 4.5007,0 475.7142,11.2053 475.7142,25.0278 z"
       id="path4564-7-06"
       inkscape:connector-curvature="0"
       sodipodi:nodetypes="szszs" />
    <path
       style="fill:#000000;fill-opacity:0.55491327;stroke:none"
       d="m 1714.1614,333.19661 c 0,13.82246 -461.1121,25.70844 -475.7143,25.02778 -14.6022,-0.68067 -475.71434,-11.20532 -475.71434,-25.02778 0,-13.82245 471.21364,-25.02777 475.71434,-25.02777 4.5007,0 475.7143,11.20532 475.7143,25.02777 z"
       id="path4564-6-1"
       inkscape:connector-curvature="0"
       sodipodi:nodetypes="szszs" />
    <path
       style="fill:#000000;fill-opacity:0.55491327;stroke:none"
       d="m 548.8382,441.98331 c 0,13.82246 -461.112101,25.70844 -475.714301,25.02778 -14.6022,-0.68067 -475.714259,-11.20532 -475.714259,-25.02778 0,-13.82245 471.213559,-25.02777 475.714259,-25.02777 4.5007,0 475.714301,11.20532 475.714301,25.02777 z"
       id="path4564-38"
       inkscape:connector-curvature="0"
       sodipodi:nodetypes="szszs" />
    <path
       style="fill:#000000;fill-opacity:0.55491327;stroke:none"
       d="m 683.3029,532.47726 c 0,13.82246 -461.112,25.70844 -475.7142,25.02778 -14.6022,-0.68067 -475.71427,-11.20532 -475.71427,-25.02778 0,-13.82245 471.21357,-25.02777 475.71427,-25.02777 4.5007,0 475.7142,11.20532 475.7142,25.02777 z"
       id="path4564-1-9"
       inkscape:connector-curvature="0"
       sodipodi:nodetypes="szszs" />
    <path
       style="fill:#000000;fill-opacity:0.55491327;stroke:none"
       d="m 340.3539,923.12569 c 0,13.82246 -461.1121,25.70844 -475.7143,25.02778 -14.6022,-0.68067 -475.71428,-11.20532 -475.71428,-25.02778 0,-13.82245 471.21358,-25.02777 475.71428,-25.02777 4.5007,0 475.7143,11.20532 475.7143,25.02777 z"
       id="path4564-4-3"
       inkscape:connector-curvature="0"
       sodipodi:nodetypes="szszs" />
    <path
       style="fill:#000000;fill-opacity:0.55491327;stroke:none"
       d="m 342.3742,721.09518 c 0,13.82246 -461.1121,25.70844 -475.7143,25.02778 -14.6022,-0.68067 -475.71427,-11.20532 -475.71427,-25.02778 0,-13.82245 471.21357,-25.02777 475.71427,-25.02777 4.5007,0 475.7143,11.20532 475.7143,25.02777 z"
       id="path4564-2-4"
       inkscape:connector-curvature="0"
       sodipodi:nodetypes="szszs" />
    <path
       style="fill:#000000;fill-opacity:0.55491327;stroke:none"
       d="m 625.2168,850.39471 c 0,13.82246 -461.112,25.70844 -475.7142,25.02778 -14.6022,-0.68067 -475.71427,-11.20532 -475.71427,-25.02778 0,-13.82245 471.21357,-25.02777 475.71427,-25.02777 4.5007,0 475.7142,11.20532 475.7142,25.02777 z"
       id="path4564-3-4"
       inkscape:connector-curvature="0"
       sodipodi:nodetypes="szszs" />
    <path
       style="fill:#000000;fill-opacity:0.55491327;stroke:none"
       d="m 825.227,652.40481 c 0,13.82246 -461.112,25.70844 -475.7142,25.02778 -14.6022,-0.68067 -475.7143,-11.20532 -475.7143,-25.02778 0,-13.82245 471.2136,-25.02777 475.7143,-25.02777 4.5007,0 475.7142,11.20532 475.7142,25.02777 z"
       id="path4564-22-6"
       inkscape:connector-curvature="0"
       sodipodi:nodetypes="szszs" />
    <path
       style="fill:#000000;fill-opacity:0.55491327;stroke:none"
       d="m 714.1102,1117.075 c 0,13.8224 -461.112,25.7084 -475.7142,25.0278 -14.6022,-0.6807 -475.71424,-11.2054 -475.71424,-25.0278 0,-13.8225 471.21354,-25.0278 475.71424,-25.0278 4.5007,0 475.7142,11.2053 475.7142,25.0278 z"
       id="path4564-16-06"
       inkscape:connector-curvature="0"
       sodipodi:nodetypes="szszs" />
    <path
       style="fill:#000000;fill-opacity:0.55491327;stroke:none"
       d="m 417.1254,1258.4963 c 0,13.8225 -461.112001,25.7085 -475.714201,25.0278 -14.6022,-0.6807 -475.714289,-11.2053 -475.714289,-25.0278 0,-13.8224 471.213589,-25.0277 475.714289,-25.0277 4.5007,0 475.714201,11.2053 475.714201,25.0277 z"
       id="path4564-8-61"
       inkscape:connector-curvature="0"
       sodipodi:nodetypes="szszs" />
    <path
       style="fill:#000000;fill-opacity:0.55491327;stroke:none"
       d="m 295.9072,1030.2019 c 0,13.8224 -461.11211,25.7084 -475.71432,25.0277 -14.60221,-0.6806 -475.71427,-11.2053 -475.71427,-25.0277 0,-13.8225 471.21358,-25.0278 475.71427,-25.0278 4.50069,0 475.71432,11.2053 475.71432,25.0278 z"
       id="path4564-5-8"
       inkscape:connector-curvature="0"
       sodipodi:nodetypes="szszs" />
    <path
       style="fill:#000000;fill-opacity:0.55491327;stroke:none"
       d="m 748.4554,1191.8263 c 0,13.8224 -461.112,25.7084 -475.7142,25.0277 -14.6022,-0.6806 -475.71425,-11.2053 -475.71425,-25.0277 0,-13.8225 471.21355,-25.0278 475.71425,-25.0278 4.5007,0 475.7142,11.2053 475.7142,25.0278 z"
       id="path4564-7-4"
       inkscape:connector-curvature="0"
       sodipodi:nodetypes="szszs" />
    <path
       style="fill:#000000;fill-opacity:0.55491327;stroke:none"
       d="m 800.9834,981.71454 c 0,13.82246 -461.112,25.70846 -475.7142,25.02776 -14.6023,-0.6807 -475.7143,-11.2053 -475.7143,-25.02776 0,-13.82245 471.2136,-25.02777 475.7143,-25.02777 4.5006,0 475.7142,11.20532 475.7142,25.02777 z"
       id="path4564-6-9"
       inkscape:connector-curvature="0"
       sodipodi:nodetypes="szszs" />
    <path
       style="fill:#000000;fill-opacity:0.55491327;stroke:none"
       d="m 734.70628,-40.869607 c 0,13.82246 -461.11209,25.70844 -475.7143,25.02778 -14.60221,-0.68067 -475.71427,-11.20532 -475.71427,-25.02778 0,-13.82245 471.21358,-25.02777 475.71427,-25.02777 4.50069,0 475.7143,11.20532 475.7143,25.02777 z"
       id="path4564-63"
       inkscape:connector-curvature="0"
       sodipodi:nodetypes="szszs" />
    <path
       style="fill:#000000;fill-opacity:0.55491327;stroke:none"
       d="m 869.17095,49.624343 c 0,13.82246 -461.11196,25.70844 -475.71417,25.02778 -14.60221,-0.68067 -475.714278,-11.20532 -475.714278,-25.02778 0,-13.82245 471.213588,-25.02777 475.714278,-25.02777 4.50069,0 475.71417,11.20532 475.71417,25.02777 z"
       id="path4564-1-78"
       inkscape:connector-curvature="0"
       sodipodi:nodetypes="szszs" />
    <path
       style="fill:#000000;fill-opacity:0.55491327;stroke:none"
       d="m 526.22194,440.27279 c 0,13.8224 -461.112066,25.7084 -475.714276,25.0278 -14.60221,-0.6807 -475.714274,-11.2054 -475.714274,-25.0278 0,-13.8225 471.213584,-25.0278 475.714274,-25.0278 4.50069,0 475.714276,11.2053 475.714276,25.0278 z"
       id="path4564-4-8"
       inkscape:connector-curvature="0"
       sodipodi:nodetypes="szszs" />
    <path
       style="fill:#000000;fill-opacity:0.55491327;stroke:none"
       d="m 528.24224,238.24226 c 0,13.82246 -461.112056,25.70844 -475.714266,25.02778 -14.60221,-0.68067 -475.714274,-11.20532 -475.714274,-25.02778 0,-13.82245 471.213584,-25.02777 475.714274,-25.02777 4.50069,0 475.714266,11.20532 475.714266,25.02777 z"
       id="path4564-2-2"
       inkscape:connector-curvature="0"
       sodipodi:nodetypes="szszs" />
    <path
       style="fill:#000000;fill-opacity:0.55491327;stroke:none"
       d="m 811.08488,367.54179 c 0,13.82246 -461.112,25.70844 -475.71421,25.02778 -14.60221,-0.68067 -475.71427,-11.20532 -475.71427,-25.02778 0,-13.82245 471.21358,-25.02777 475.71427,-25.02777 4.50069,0 475.71421,11.20532 475.71421,25.02777 z"
       id="path4564-3-9"
       inkscape:connector-curvature="0"
       sodipodi:nodetypes="szszs" />
    <path
       style="fill:#000000;fill-opacity:0.55491327;stroke:none"
       d="m 1011.0951,169.55189 c 0,13.82246 -461.11202,25.70844 -475.71422,25.02778 C 520.77867,193.899 59.666614,183.37435 59.666614,169.55189 c 0,-13.82245 471.213566,-25.02777 475.714266,-25.02777 4.5007,0 475.71422,11.20532 475.71422,25.02777 z"
       id="path4564-22-1"
       inkscape:connector-curvature="0"
       sodipodi:nodetypes="szszs" />
    <path
       style="fill:#000000;fill-opacity:0.55491327;stroke:none"
       d="m 899.97825,634.22209 c 0,13.8224 -461.11194,25.7084 -475.71415,25.0277 -14.60221,-0.6806 -475.714268,-11.2053 -475.714268,-25.0277 0,-13.8225 471.213578,-25.0278 475.714268,-25.0278 4.50069,0 475.71415,11.2053 475.71415,25.0278 z"
       id="path4564-16-3"
       inkscape:connector-curvature="0"
       sodipodi:nodetypes="szszs" />
    <path
       style="fill:#000000;fill-opacity:0.55491327;stroke:none"
       d="m 602.99348,775.64339 c 0,13.8225 -461.11202,25.7085 -475.71423,25.0278 -14.60221,-0.6807 -475.71427,-11.2053 -475.71427,-25.0278 0,-13.8224 471.21358,-25.0277 475.71427,-25.0277 4.50069,0 475.71423,11.2053 475.71423,25.0277 z"
       id="path4564-8-5"
       inkscape:connector-curvature="0"
       sodipodi:nodetypes="szszs" />
    <path
       style="fill:#000000;fill-opacity:0.55491327;stroke:none"
       d="m 481.77522,547.34889 c 0,13.8225 -461.112056,25.7085 -475.7142661,25.0278 -14.60221,-0.6806 -475.7142739,-11.2053 -475.7142739,-25.0278 0,-13.8224 471.2135839,-25.0277 475.7142739,-25.0277 4.5006901,0 475.7142661,11.2053 475.7142661,25.0277 z"
       id="path4564-5-9"
       inkscape:connector-curvature="0"
       sodipodi:nodetypes="szszs" />
    <path
       style="fill:#000000;fill-opacity:0.55491327;stroke:none"
       d="m 934.32345,708.97339 c 0,13.8224 -461.11195,25.7084 -475.71416,25.0277 -14.60221,-0.6806 -475.714266,-11.2053 -475.714266,-25.0277 0,-13.8225 471.213576,-25.0278 475.714266,-25.0278 4.50069,0 475.71416,11.2053 475.71416,25.0278 z"
       id="path4564-7-84"
       inkscape:connector-curvature="0"
       sodipodi:nodetypes="szszs" />
    <path
       style="fill:#000000;fill-opacity:0.55491327;stroke:none"
       d="m 986.85145,498.86159 c 0,13.8225 -461.11202,25.7085 -475.71423,25.0278 -14.60221,-0.6807 -475.714266,-11.2053 -475.714266,-25.0278 0,-13.8224 471.213576,-25.0277 475.714266,-25.0277 4.50069,0 475.71423,11.2053 475.71423,25.0277 z"
       id="path4564-6-0"
       inkscape:connector-curvature="0"
       sodipodi:nodetypes="szszs" />
    <path
       style="fill:#000000;fill-opacity:0.55491327;stroke:none"
       d="m 1276.1481,193.48578 c 0,13.82246 -461.11214,25.70844 -475.71435,25.02778 -14.60221,-0.68067 -475.71427,-11.20532 -475.71427,-25.02778 0,-13.82245 471.21358,-25.02777 475.71427,-25.02777 4.50069,0 475.71435,11.20532 475.71435,25.02777 z"
       id="path4564-76"
       inkscape:connector-curvature="0"
       sodipodi:nodetypes="szszs" />
    <path
       style="fill:#000000;fill-opacity:0.55491327;stroke:none"
       d="m 1410.6128,283.97973 c 0,13.82246 -461.11204,25.70844 -475.71425,25.02778 -14.60221,-0.68067 -475.71428,-11.20532 -475.71428,-25.02778 0,-13.82245 471.21359,-25.02777 475.71428,-25.02777 4.50069,0 475.71425,11.20532 475.71425,25.02777 z"
       id="path4564-1-3"
       inkscape:connector-curvature="0"
       sodipodi:nodetypes="szszs" />
    <path
       style="fill:#000000;fill-opacity:0.55491327;stroke:none"
       d="m 1067.6637,674.62816 c 0,13.82246 -461.11206,25.70844 -475.71427,25.02778 -14.60221,-0.68067 -475.71427,-11.20532 -475.71427,-25.02778 0,-13.82245 471.21358,-25.02777 475.71427,-25.02777 4.50069,0 475.71427,11.20532 475.71427,25.02777 z"
       id="path4564-4-6"
       inkscape:connector-curvature="0"
       sodipodi:nodetypes="szszs" />
    <path
       style="fill:#000000;fill-opacity:0.55491327;stroke:none"
       d="m 1069.684,472.59765 c 0,13.82246 -461.11205,25.70844 -475.71426,25.02778 -14.60221,-0.68067 -475.71427,-11.20532 -475.71427,-25.02778 0,-13.82245 471.21358,-25.02777 475.71427,-25.02777 4.50069,0 475.71426,11.20532 475.71426,25.02777 z"
       id="path4564-2-1"
       inkscape:connector-curvature="0"
       sodipodi:nodetypes="szszs" />
    <path
       style="fill:#000000;fill-opacity:0.55491327;stroke:none"
       d="m 1352.5267,601.89718 c 0,13.82246 -461.11205,25.70844 -475.71426,25.02778 -14.60221,-0.68067 -475.71427,-11.20532 -475.71427,-25.02778 0,-13.82245 471.21358,-25.02777 475.71427,-25.02777 4.50069,0 475.71426,11.20532 475.71426,25.02777 z"
       id="path4564-3-5"
       inkscape:connector-curvature="0"
       sodipodi:nodetypes="szszs" />
    <path
       style="fill:#000000;fill-opacity:0.55491327;stroke:none"
       d="m 1552.5369,403.90728 c 0,13.82246 -461.1121,25.70844 -475.7143,25.02778 -14.6022,-0.68067 -475.71422,-11.20532 -475.71422,-25.02778 0,-13.82245 471.21352,-25.02777 475.71422,-25.02777 4.5007,0 475.7143,11.20532 475.7143,25.02777 z"
       id="path4564-22-42"
       inkscape:connector-curvature="0"
       sodipodi:nodetypes="szszs" />
    <path
       style="fill:#000000;fill-opacity:0.55491327;stroke:none"
       d="m 1441.4201,868.57745 c 0,13.82246 -461.11202,25.70844 -475.71423,25.02778 -14.60221,-0.68067 -475.71427,-11.20532 -475.71427,-25.02778 0,-13.82245 471.21358,-25.02777 475.71427,-25.02777 4.50069,0 475.71423,11.20532 475.71423,25.02777 z"
       id="path4564-16-09"
       inkscape:connector-curvature="0"
       sodipodi:nodetypes="szszs" />
    <path
       style="fill:#000000;fill-opacity:0.55491327;stroke:none"
       d="m 1144.4352,1009.9988 c 0,13.8225 -461.11197,25.7085 -475.71418,25.0278 -14.60221,-0.6807 -475.71427,-11.2053 -475.71427,-25.0278 0,-13.82244 471.21358,-25.02776 475.71427,-25.02776 4.50069,0 475.71418,11.20532 475.71418,25.02776 z"
       id="path4564-8-7"
       inkscape:connector-curvature="0"
       sodipodi:nodetypes="szszs" />
    <path
       style="fill:#000000;fill-opacity:0.55491327;stroke:none"
       d="m 1023.217,781.70433 c 0,13.82246 -461.11207,25.70844 -475.71428,25.02778 -14.60221,-0.68067 -475.714275,-11.20532 -475.714275,-25.02778 0,-13.82245 471.213585,-25.02777 475.714275,-25.02777 4.50069,0 475.71428,11.20532 475.71428,25.02777 z"
       id="path4564-5-37"
       inkscape:connector-curvature="0"
       sodipodi:nodetypes="szszs" />
    <path
       style="fill:#000000;fill-opacity:0.55491327;stroke:none"
       d="m 1475.7653,943.32874 c 0,13.82246 -461.112,25.70844 -475.7142,25.02778 -14.60225,-0.68067 -475.71431,-11.20532 -475.71431,-25.02778 0,-13.82245 471.21358,-25.02777 475.71431,-25.02777 4.5006,0 475.7142,11.20532 475.7142,25.02777 z"
       id="path4564-7-2"
       inkscape:connector-curvature="0"
       sodipodi:nodetypes="szszs" />
    <path
       style="fill:#000000;fill-opacity:0.55491327;stroke:none"
       d="m 1528.2933,733.21701 c 0,13.82246 -461.1121,25.70844 -475.7143,25.02778 -14.6022,-0.68067 -475.71428,-11.20532 -475.71428,-25.02778 0,-13.82245 471.21358,-25.02777 475.71428,-25.02777 4.5007,0 475.7143,11.20532 475.7143,25.02777 z"
       id="path4564-6-6"
       inkscape:connector-curvature="0"
       sodipodi:nodetypes="szszs" />
    <path
       style="fill:#000000;fill-opacity:0.55491327;stroke:none"
       d="m 690.25962,-384.32147 c 0,13.82246 -461.11214,25.70844 -475.71435,25.02778 -14.60221,-0.68067 -475.71427,-11.20532 -475.71427,-25.02778 0,-13.82245 471.21358,-25.02777 475.71427,-25.02777 4.50069,0 475.71435,11.20532 475.71435,25.02777 z"
       id="path4564-0"
       inkscape:connector-curvature="0"
       sodipodi:nodetypes="szszs" />
    <path
       style="fill:#000000;fill-opacity:0.55491327;stroke:none"
       d="m 824.72432,-293.82752 c 0,13.82246 -461.11204,25.70844 -475.71425,25.02778 -14.60221,-0.68067 -475.71428,-11.20532 -475.71428,-25.02778 0,-13.82245 471.21359,-25.02777 475.71428,-25.02777 4.50069,0 475.71425,11.20532 475.71425,25.02777 z"
       id="path4564-1-16"
       inkscape:connector-curvature="0"
       sodipodi:nodetypes="szszs" />
    <path
       style="fill:#000000;fill-opacity:0.55491327;stroke:none"
       d="m 481.77522,96.820908 c 0,13.822462 -461.112061,25.708442 -475.7142711,25.027782 -14.60221,-0.68067 -475.7142689,-11.20532 -475.7142689,-25.027782 0,-13.82245 471.2135789,-25.02777 475.7142689,-25.02777 4.5006901,0 475.7142711,11.20532 475.7142711,25.02777 z"
       id="path4564-4-5"
       inkscape:connector-curvature="0"
       sodipodi:nodetypes="szszs" />
    <path
       style="fill:#000000;fill-opacity:0.55491327;stroke:none"
       d="m 483.79552,-105.2096 c 0,13.822458 -461.112051,25.708438 -475.7142611,25.027778 -14.60221,-0.68067 -475.7142689,-11.20532 -475.7142689,-25.027778 0,-13.82245 471.2135789,-25.02777 475.7142689,-25.02777 4.5006901,0 475.7142611,11.20532 475.7142611,25.02777 z"
       id="path4564-2-7"
       inkscape:connector-curvature="0"
       sodipodi:nodetypes="szszs" />
    <path
       style="fill:#000000;fill-opacity:0.55491327;stroke:none"
       d="m 766.63822,24.089928 c 0,13.82246 -461.11205,25.70844 -475.71426,25.02778 -14.60221,-0.68067 -475.71427,-11.20532 -475.71427,-25.02778 0,-13.82245 471.21358,-25.02776993 475.71427,-25.02776993 4.50069,0 475.71426,11.20531993 475.71426,25.02776993 z"
       id="path4564-3-54"
       inkscape:connector-curvature="0"
       sodipodi:nodetypes="szszs" />
    <path
       style="fill:#000000;fill-opacity:0.55491327;stroke:none"
       d="m 966.64842,-173.89997 c 0,13.82246 -461.112,25.70844 -475.7142,25.02778 -14.6023,-0.68067 -475.714321,-11.20532 -475.714321,-25.02778 0,-13.82245 471.213621,-25.02777 475.714321,-25.02777 4.5007,0 475.7142,11.20532 475.7142,25.02777 z"
       id="path4564-22-12"
       inkscape:connector-curvature="0"
       sodipodi:nodetypes="szszs" />
    <path
       style="fill:#000000;fill-opacity:0.55491327;stroke:none"
       d="m 855.53162,290.7702 c 0,13.82246 -461.11202,25.70844 -475.71423,25.02778 -14.60221,-0.68067 -475.714271,-11.20532 -475.714271,-25.02778 0,-13.82245 471.213581,-25.02777 475.714271,-25.02777 4.50069,0 475.71423,11.20532 475.71423,25.02777 z"
       id="path4564-16-00"
       inkscape:connector-curvature="0"
       sodipodi:nodetypes="szszs" />
    <path
       style="fill:#000000;fill-opacity:0.55491327;stroke:none"
       d="m 558.54682,432.19156 c 0,13.82246 -461.112071,25.70844 -475.714281,25.02778 -14.60221,-0.68067 -475.714269,-11.20532 -475.714269,-25.02778 0,-13.82245 471.213579,-25.02777 475.714269,-25.02777 4.50069,0 475.714281,11.20532 475.714281,25.02777 z"
       id="path4564-8-14"
       inkscape:connector-curvature="0"
       sodipodi:nodetypes="szszs" />
    <path
       style="fill:#000000;fill-opacity:0.55491327;stroke:none"
       d="m 437.32852,203.89708 c 0,13.82246 -461.112071,25.70844 -475.714281,25.02778 -14.60221,-0.68067 -475.714269,-11.20532 -475.714269,-25.02778 0,-13.82245 471.213579,-25.02777 475.714269,-25.02777 4.50069,0 475.714281,11.20532 475.714281,25.02777 z"
       id="path4564-5-6"
       inkscape:connector-curvature="0"
       sodipodi:nodetypes="szszs" />
    <path
       style="fill:#000000;fill-opacity:0.55491327;stroke:none"
       d="m 889.87682,365.52149 c 0,13.82246 -461.112,25.70844 -475.7142,25.02778 -14.60225,-0.68067 -475.714311,-11.20532 -475.714311,-25.02778 0,-13.82245 471.213581,-25.02777 475.714311,-25.02777 4.5007,0 475.7142,11.20532 475.7142,25.02777 z"
       id="path4564-7-07"
       inkscape:connector-curvature="0"
       sodipodi:nodetypes="szszs" />
    <path
       style="fill:#000000;fill-opacity:0.55491327;stroke:none"
       d="m 942.40482,155.40976 c 0,13.82246 -461.1121,25.70844 -475.7143,25.02778 -14.6022,-0.68067 -475.7142811,-11.20532 -475.7142811,-25.02778 0,-13.82245 471.2135811,-25.02777 475.7142811,-25.02777 4.5007,0 475.7143,11.20532 475.7143,25.02777 z"
       id="path4564-6-17"
       inkscape:connector-curvature="0"
       sodipodi:nodetypes="szszs" />
  </g>
  <g
     inkscape:groupmode="layer"
     id="layer4"
     inkscape:label="sdgf">
    <path
       sodipodi:type="arc"
       style="fill:#ffffff;fill-opacity:0.65895951;stroke:none"
       id="path5395"
       sodipodi:cx="730.34027"
       sodipodi:cy="30.009895"
       sodipodi:rx="700.03571"
       sodipodi:ry="18.182745"
       d="m 1430.376,30.009895 a 700.03571,18.182745 0 1 1 -1400.071435,0 700.03571,18.182745 0 1 1 1400.071435,0 z"
       transform="translate(-765.69563,32.324881)" />
    <path
       sodipodi:type="arc"
       style="fill:#ffffff;fill-opacity:0.65895951;stroke:none"
       id="path5395-7"
       sodipodi:cx="730.34027"
       sodipodi:cy="30.009895"
       sodipodi:rx="700.03571"
       sodipodi:ry="18.182745"
       d="m 1430.376,30.009895 a 700.03571,18.182745 0 1 1 -1400.071435,0 700.03571,18.182745 0 1 1 1400.071435,0 z"
       transform="translate(-73.741121,416.18285)" />
    <path
       sodipodi:type="arc"
       style="fill:#ffffff;fill-opacity:0.65895951;stroke:none"
       id="path5395-77"
       sodipodi:cx="730.34027"
       sodipodi:cy="30.009895"
       sodipodi:rx="700.03571"
       sodipodi:ry="18.182745"
       d="m 1430.376,30.009895 a 700.03571,18.182745 0 1 1 -1400.071435,0 700.03571,18.182745 0 1 1 1400.071435,0 z"
       transform="translate(156.57367,165.66501)" />
    <path
       sodipodi:type="arc"
       style="fill:#ffffff;fill-opacity:0.65895951;stroke:none"
       id="path5395-3"
       sodipodi:cx="730.34027"
       sodipodi:cy="30.009895"
       sodipodi:rx="700.03571"
       sodipodi:ry="18.182745"
       d="m 1430.376,30.009895 a 700.03571,18.182745 0 1 1 -1400.071435,0 700.03571,18.182745 0 1 1 1400.071435,0 z"
       transform="translate(-213.14216,317.1879)" />
    <path
       sodipodi:type="arc"
       style="fill:#ffffff;fill-opacity:0.65895951;stroke:none"
       id="path5395-35"
       sodipodi:cx="730.34027"
       sodipodi:cy="30.009895"
       sodipodi:rx="700.03571"
       sodipodi:ry="18.182745"
       d="m 1430.376,30.009895 a 700.03571,18.182745 0 1 1 -1400.071435,0 700.03571,18.182745 0 1 1 1400.071435,0 z"
       transform="translate(219.20312,814.18295)" />
    <path
       sodipodi:type="arc"
       style="fill:#ffffff;fill-opacity:0.65895951;stroke:none"
       id="path5395-9"
       sodipodi:cx="730.34027"
       sodipodi:cy="30.009895"
       sodipodi:rx="700.03571"
       sodipodi:ry="18.182745"
       d="m 1430.376,30.009895 a 700.03571,18.182745 0 1 1 -1400.071435,0 700.03571,18.182745 0 1 1 1400.071435,0 z"
       transform="translate(-409.11176,610.13214)" />
    <path
       sodipodi:type="arc"
       style="fill:#ffffff;fill-opacity:0.65895951;stroke:none"
       id="path5395-98"
       sodipodi:cx="730.34027"
       sodipodi:cy="30.009895"
       sodipodi:rx="700.03571"
       sodipodi:ry="18.182745"
       d="m 1430.376,30.009895 a 700.03571,18.182745 0 1 1 -1400.071435,0 700.03571,18.182745 0 1 1 1400.071435,0 z"
       transform="translate(209.10159,672.76159)" />
    <path
       sodipodi:type="arc"
       style="fill:#ffffff;fill-opacity:0.65895951;stroke:none"
       id="path5395-1"
       sodipodi:cx="730.34027"
       sodipodi:cy="30.009895"
       sodipodi:rx="700.03571"
       sodipodi:ry="18.182745"
       d="m 1430.376,30.009895 a 700.03571,18.182745 0 1 1 -1400.071435,0 700.03571,18.182745 0 1 1 1400.071435,0 z"
       transform="translate(-253.54827,929.34035)" />
    <path
       sodipodi:type="arc"
       style="fill:#ffffff;fill-opacity:0.65895951;stroke:none"
       id="path5395-8"
       sodipodi:cx="730.34027"
       sodipodi:cy="30.009895"
       sodipodi:rx="700.03571"
       sodipodi:ry="18.182745"
       d="m 1430.376,30.009895 a 700.03571,18.182745 0 1 1 -1400.071435,0 700.03571,18.182745 0 1 1 1400.071435,0 z"
       transform="translate(-419.21329,783.87837)" />
    <path
       sodipodi:type="arc"
       style="fill:#ffffff;fill-opacity:0.65895951;stroke:none"
       id="path5395-2"
       sodipodi:cx="730.34027"
       sodipodi:cy="30.009895"
       sodipodi:rx="700.03571"
       sodipodi:ry="18.182745"
       d="m 1430.376,30.009895 a 700.03571,18.182745 0 1 1 -1400.071435,0 700.03571,18.182745 0 1 1 1400.071435,0 z"
       transform="translate(-729.83521,107.07616)" />
    <path
       sodipodi:type="arc"
       style="fill:#ffffff;fill-opacity:0.65895951;stroke:none"
       id="path5395-7-6"
       sodipodi:cx="730.34027"
       sodipodi:cy="30.009895"
       sodipodi:rx="700.03571"
       sodipodi:ry="18.182745"
       d="m 1430.376,30.009895 a 700.03571,18.182745 0 1 1 -1400.071435,0 700.03571,18.182745 0 1 1 1400.071435,0 z"
       transform="translate(-37.880695,490.93413)" />
    <path
       sodipodi:type="arc"
       style="fill:#ffffff;fill-opacity:0.65895951;stroke:none"
       id="path5395-77-6"
       sodipodi:cx="730.34027"
       sodipodi:cy="30.009895"
       sodipodi:rx="700.03571"
       sodipodi:ry="18.182745"
       d="m 1430.376,30.009895 a 700.03571,18.182745 0 1 1 -1400.071435,0 700.03571,18.182745 0 1 1 1400.071435,0 z"
       transform="translate(192.43409,240.41629)" />
    <path
       sodipodi:type="arc"
       style="fill:#ffffff;fill-opacity:0.65895951;stroke:none"
       id="path5395-3-0"
       sodipodi:cx="730.34027"
       sodipodi:cy="30.009895"
       sodipodi:rx="700.03571"
       sodipodi:ry="18.182745"
       d="m 1430.376,30.009895 a 700.03571,18.182745 0 1 1 -1400.071435,0 700.03571,18.182745 0 1 1 1400.071435,0 z"
       transform="translate(-177.28174,391.93918)" />
    <path
       sodipodi:type="arc"
       style="fill:#ffffff;fill-opacity:0.65895951;stroke:none"
       id="path5395-35-3"
       sodipodi:cx="730.34027"
       sodipodi:cy="30.009895"
       sodipodi:rx="700.03571"
       sodipodi:ry="18.182745"
       d="m 1430.376,30.009895 a 700.03571,18.182745 0 1 1 -1400.071435,0 700.03571,18.182745 0 1 1 1400.071435,0 z"
       transform="translate(255.06354,888.93423)" />
    <path
       sodipodi:type="arc"
       style="fill:#ffffff;fill-opacity:0.65895951;stroke:none"
       id="path5395-9-8"
       sodipodi:cx="730.34027"
       sodipodi:cy="30.009895"
       sodipodi:rx="700.03571"
       sodipodi:ry="18.182745"
       d="m 1430.376,30.009895 a 700.03571,18.182745 0 1 1 -1400.071435,0 700.03571,18.182745 0 1 1 1400.071435,0 z"
       transform="translate(-373.25134,684.88342)" />
    <path
       sodipodi:type="arc"
       style="fill:#ffffff;fill-opacity:0.65895951;stroke:none"
       id="path5395-98-0"
       sodipodi:cx="730.34027"
       sodipodi:cy="30.009895"
       sodipodi:rx="700.03571"
       sodipodi:ry="18.182745"
       d="m 1430.376,30.009895 a 700.03571,18.182745 0 1 1 -1400.071435,0 700.03571,18.182745 0 1 1 1400.071435,0 z"
       transform="translate(244.96201,747.51287)" />
    <path
       sodipodi:type="arc"
       style="fill:#ffffff;fill-opacity:0.65895951;stroke:none"
       id="path5395-1-1"
       sodipodi:cx="730.34027"
       sodipodi:cy="30.009895"
       sodipodi:rx="700.03571"
       sodipodi:ry="18.182745"
       d="m 1430.376,30.009895 a 700.03571,18.182745 0 1 1 -1400.071435,0 700.03571,18.182745 0 1 1 1400.071435,0 z"
       transform="translate(-217.68785,1004.0916)" />
    <path
       sodipodi:type="arc"
       style="fill:#ffffff;fill-opacity:0.65895951;stroke:none"
       id="path5395-8-2"
       sodipodi:cx="730.34027"
       sodipodi:cy="30.009895"
       sodipodi:rx="700.03571"
       sodipodi:ry="18.182745"
       d="m 1430.376,30.009895 a 700.03571,18.182745 0 1 1 -1400.071435,0 700.03571,18.182745 0 1 1 1400.071435,0 z"
       transform="translate(-383.35287,858.62965)" />
    <path
       sodipodi:type="arc"
       style="fill:#ffffff;fill-opacity:0.65895951;stroke:none"
       id="path5395-7-1"
       sodipodi:cx="730.34027"
       sodipodi:cy="30.009895"
       sodipodi:rx="700.03571"
       sodipodi:ry="18.182745"
       d="m 1430.376,30.009895 a 700.03571,18.182745 0 1 1 -1400.071435,0 700.03571,18.182745 0 1 1 1400.071435,0 z"
       transform="translate(-121.6135,-113.3866)" />
    <path
       sodipodi:type="arc"
       style="fill:#ffffff;fill-opacity:0.65895951;stroke:none"
       id="path5395-77-7"
       sodipodi:cx="730.34027"
       sodipodi:cy="30.009895"
       sodipodi:rx="700.03571"
       sodipodi:ry="18.182745"
       d="m 1430.376,30.009895 a 700.03571,18.182745 0 1 1 -1400.071435,0 700.03571,18.182745 0 1 1 1400.071435,0 z"
       transform="translate(108.70129,-363.90444)" />
    <path
       sodipodi:type="arc"
       style="fill:#ffffff;fill-opacity:0.65895951;stroke:none"
       id="path5395-3-4"
       sodipodi:cx="730.34027"
       sodipodi:cy="30.009895"
       sodipodi:rx="700.03571"
       sodipodi:ry="18.182745"
       d="m 1430.376,30.009895 a 700.03571,18.182745 0 1 1 -1400.071435,0 700.03571,18.182745 0 1 1 1400.071435,0 z"
       transform="translate(-261.01454,-212.38155)" />
    <path
       sodipodi:type="arc"
       style="fill:#ffffff;fill-opacity:0.65895951;stroke:none"
       id="path5395-35-0"
       sodipodi:cx="730.34027"
       sodipodi:cy="30.009895"
       sodipodi:rx="700.03571"
       sodipodi:ry="18.182745"
       d="m 1430.376,30.009895 a 700.03571,18.182745 0 1 1 -1400.071435,0 700.03571,18.182745 0 1 1 1400.071435,0 z"
       transform="translate(171.33074,284.61353)" />
    <path
       sodipodi:type="arc"
       style="fill:#ffffff;fill-opacity:0.65895951;stroke:none"
       id="path5395-9-9"
       sodipodi:cx="730.34027"
       sodipodi:cy="30.009895"
       sodipodi:rx="700.03571"
       sodipodi:ry="18.182745"
       d="m 1430.376,30.009895 a 700.03571,18.182745 0 1 1 -1400.071435,0 700.03571,18.182745 0 1 1 1400.071435,0 z"
       transform="translate(-456.98413,80.562732)" />
    <path
       sodipodi:type="arc"
       style="fill:#ffffff;fill-opacity:0.65895951;stroke:none"
       id="path5395-98-4"
       sodipodi:cx="730.34027"
       sodipodi:cy="30.009895"
       sodipodi:rx="700.03571"
       sodipodi:ry="18.182745"
       d="m 1430.376,30.009895 a 700.03571,18.182745 0 1 1 -1400.071435,0 700.03571,18.182745 0 1 1 1400.071435,0 z"
       transform="translate(161.22921,143.19213)" />
    <path
       sodipodi:type="arc"
       style="fill:#ffffff;fill-opacity:0.65895951;stroke:none"
       id="path5395-1-8"
       sodipodi:cx="730.34027"
       sodipodi:cy="30.009895"
       sodipodi:rx="700.03571"
       sodipodi:ry="18.182745"
       d="m 1430.376,30.009895 a 700.03571,18.182745 0 1 1 -1400.071435,0 700.03571,18.182745 0 1 1 1400.071435,0 z"
       transform="translate(-301.42065,399.77093)" />
    <path
       sodipodi:type="arc"
       style="fill:#ffffff;fill-opacity:0.65895951;stroke:none"
       id="path5395-8-8"
       sodipodi:cx="730.34027"
       sodipodi:cy="30.009895"
       sodipodi:rx="700.03571"
       sodipodi:ry="18.182745"
       d="m 1430.376,30.009895 a 700.03571,18.182745 0 1 1 -1400.071435,0 700.03571,18.182745 0 1 1 1400.071435,0 z"
       transform="translate(-467.08566,254.30893)" />
    <path
       sodipodi:type="arc"
       style="fill:#ffffff;fill-opacity:0.65895951;stroke:none"
       id="path5395-2-2"
       sodipodi:cx="730.34027"
       sodipodi:cy="30.009895"
       sodipodi:rx="700.03571"
       sodipodi:ry="18.182745"
       d="m 1430.376,30.009895 a 700.03571,18.182745 0 1 1 -1400.071435,0 700.03571,18.182745 0 1 1 1400.071435,0 z"
       transform="translate(-777.70758,-422.49329)" />
    <path
       sodipodi:type="arc"
       style="fill:#ffffff;fill-opacity:0.65895951;stroke:none"
       id="path5395-7-6-4"
       sodipodi:cx="730.34027"
       sodipodi:cy="30.009895"
       sodipodi:rx="700.03571"
       sodipodi:ry="18.182745"
       d="m 1430.376,30.009895 a 700.03571,18.182745 0 1 1 -1400.071435,0 700.03571,18.182745 0 1 1 1400.071435,0 z"
       transform="translate(-85.753067,-38.635318)" />
    <path
       sodipodi:type="arc"
       style="fill:#ffffff;fill-opacity:0.65895951;stroke:none"
       id="path5395-77-6-5"
       sodipodi:cx="730.34027"
       sodipodi:cy="30.009895"
       sodipodi:rx="700.03571"
       sodipodi:ry="18.182745"
       d="m 1430.376,30.009895 a 700.03571,18.182745 0 1 1 -1400.071435,0 700.03571,18.182745 0 1 1 1400.071435,0 z"
       transform="translate(144.56171,-289.15316)" />
    <path
       sodipodi:type="arc"
       style="fill:#ffffff;fill-opacity:0.65895951;stroke:none"
       id="path5395-3-0-5"
       sodipodi:cx="730.34027"
       sodipodi:cy="30.009895"
       sodipodi:rx="700.03571"
       sodipodi:ry="18.182745"
       d="m 1430.376,30.009895 a 700.03571,18.182745 0 1 1 -1400.071435,0 700.03571,18.182745 0 1 1 1400.071435,0 z"
       transform="translate(-225.15412,-137.63027)" />
    <path
       sodipodi:type="arc"
       style="fill:#ffffff;fill-opacity:0.65895951;stroke:none"
       id="path5395-35-3-1"
       sodipodi:cx="730.34027"
       sodipodi:cy="30.009895"
       sodipodi:rx="700.03571"
       sodipodi:ry="18.182745"
       d="m 1430.376,30.009895 a 700.03571,18.182745 0 1 1 -1400.071435,0 700.03571,18.182745 0 1 1 1400.071435,0 z"
       transform="translate(207.19116,359.36473)" />
    <path
       sodipodi:type="arc"
       style="fill:#ffffff;fill-opacity:0.65895951;stroke:none"
       id="path5395-9-8-7"
       sodipodi:cx="730.34027"
       sodipodi:cy="30.009895"
       sodipodi:rx="700.03571"
       sodipodi:ry="18.182745"
       d="m 1430.376,30.009895 a 700.03571,18.182745 0 1 1 -1400.071435,0 700.03571,18.182745 0 1 1 1400.071435,0 z"
       transform="translate(-421.12372,155.31393)" />
    <path
       sodipodi:type="arc"
       style="fill:#ffffff;fill-opacity:0.65895951;stroke:none"
       id="path5395-98-0-1"
       sodipodi:cx="730.34027"
       sodipodi:cy="30.009895"
       sodipodi:rx="700.03571"
       sodipodi:ry="18.182745"
       d="m 1430.376,30.009895 a 700.03571,18.182745 0 1 1 -1400.071435,0 700.03571,18.182745 0 1 1 1400.071435,0 z"
       transform="translate(197.08963,217.94343)" />
    <path
       sodipodi:type="arc"
       style="fill:#ffffff;fill-opacity:0.65895951;stroke:none"
       id="path5395-1-1-1"
       sodipodi:cx="730.34027"
       sodipodi:cy="30.009895"
       sodipodi:rx="700.03571"
       sodipodi:ry="18.182745"
       d="m 1430.376,30.009895 a 700.03571,18.182745 0 1 1 -1400.071435,0 700.03571,18.182745 0 1 1 1400.071435,0 z"
       transform="translate(-265.56023,474.52213)" />
    <path
       sodipodi:type="arc"
       style="fill:#ffffff;fill-opacity:0.65895951;stroke:none"
       id="path5395-8-2-5"
       sodipodi:cx="730.34027"
       sodipodi:cy="30.009895"
       sodipodi:rx="700.03571"
       sodipodi:ry="18.182745"
       d="m 1430.376,30.009895 a 700.03571,18.182745 0 1 1 -1400.071435,0 700.03571,18.182745 0 1 1 1400.071435,0 z"
       transform="translate(-431.22524,329.06023)" />
    <path
       sodipodi:type="arc"
       style="fill:#ffffff;fill-opacity:0.65895951;stroke:none"
       id="path5395-7-2"
       sodipodi:cx="730.34027"
       sodipodi:cy="30.009895"
       sodipodi:rx="700.03571"
       sodipodi:ry="18.182745"
       d="m 1430.376,30.009895 a 700.03571,18.182745 0 1 1 -1400.071435,0 700.03571,18.182745 0 1 1 1400.071435,0 z"
       transform="translate(-236.77459,745.65291)" />
    <path
       sodipodi:type="arc"
       style="fill:#ffffff;fill-opacity:0.65895951;stroke:none"
       id="path5395-77-76"
       sodipodi:cx="730.34027"
       sodipodi:cy="30.009895"
       sodipodi:rx="700.03571"
       sodipodi:ry="18.182745"
       d="m 1430.376,30.009895 a 700.03571,18.182745 0 1 1 -1400.071435,0 700.03571,18.182745 0 1 1 1400.071435,0 z"
       transform="translate(-6.4597992,495.13507)" />
    <path
       sodipodi:type="arc"
       style="fill:#ffffff;fill-opacity:0.65895951;stroke:none"
       id="path5395-3-1"
       sodipodi:cx="730.34027"
       sodipodi:cy="30.009895"
       sodipodi:rx="700.03571"
       sodipodi:ry="18.182745"
       d="m 1430.376,30.009895 a 700.03571,18.182745 0 1 1 -1400.071435,0 700.03571,18.182745 0 1 1 1400.071435,0 z"
       transform="translate(-376.17563,646.65796)" />
    <path
       sodipodi:type="arc"
       style="fill:#ffffff;fill-opacity:0.65895951;stroke:none"
       id="path5395-35-4"
       sodipodi:cx="730.34027"
       sodipodi:cy="30.009895"
       sodipodi:rx="700.03571"
       sodipodi:ry="18.182745"
       d="m 1430.376,30.009895 a 700.03571,18.182745 0 1 1 -1400.071435,0 700.03571,18.182745 0 1 1 1400.071435,0 z"
       transform="translate(56.169651,1143.653)" />
    <path
       sodipodi:type="arc"
       style="fill:#ffffff;fill-opacity:0.65895951;stroke:none"
       id="path5395-9-2"
       sodipodi:cx="730.34027"
       sodipodi:cy="30.009895"
       sodipodi:rx="700.03571"
       sodipodi:ry="18.182745"
       d="m 1430.376,30.009895 a 700.03571,18.182745 0 1 1 -1400.071435,0 700.03571,18.182745 0 1 1 1400.071435,0 z"
       transform="translate(-572.14523,939.6022)" />
    <path
       sodipodi:type="arc"
       style="fill:#ffffff;fill-opacity:0.65895951;stroke:none"
       id="path5395-98-3"
       sodipodi:cx="730.34027"
       sodipodi:cy="30.009895"
       sodipodi:rx="700.03571"
       sodipodi:ry="18.182745"
       d="m 1430.376,30.009895 a 700.03571,18.182745 0 1 1 -1400.071435,0 700.03571,18.182745 0 1 1 1400.071435,0 z"
       transform="translate(46.068121,1002.2316)" />
    <path
       sodipodi:type="arc"
       style="fill:#ffffff;fill-opacity:0.65895951;stroke:none"
       id="path5395-1-2"
       sodipodi:cx="730.34027"
       sodipodi:cy="30.009895"
       sodipodi:rx="700.03571"
       sodipodi:ry="18.182745"
       d="m 1430.376,30.009895 a 700.03571,18.182745 0 1 1 -1400.071435,0 700.03571,18.182745 0 1 1 1400.071435,0 z"
       transform="translate(-416.58174,1258.8104)" />
    <path
       sodipodi:type="arc"
       style="fill:#ffffff;fill-opacity:0.65895951;stroke:none"
       id="path5395-8-21"
       sodipodi:cx="730.34027"
       sodipodi:cy="30.009895"
       sodipodi:rx="700.03571"
       sodipodi:ry="18.182745"
       d="m 1430.376,30.009895 a 700.03571,18.182745 0 1 1 -1400.071435,0 700.03571,18.182745 0 1 1 1400.071435,0 z"
       transform="translate(-582.24676,1113.3484)" />
    <path
       sodipodi:type="arc"
       style="fill:#ffffff;fill-opacity:0.65895951;stroke:none"
       id="path5395-2-6"
       sodipodi:cx="730.34027"
       sodipodi:cy="30.009895"
       sodipodi:rx="700.03571"
       sodipodi:ry="18.182745"
       d="m 1430.376,30.009895 a 700.03571,18.182745 0 1 1 -1400.071435,0 700.03571,18.182745 0 1 1 1400.071435,0 z"
       transform="translate(-892.86867,436.54622)" />
    <path
       sodipodi:type="arc"
       style="fill:#ffffff;fill-opacity:0.65895951;stroke:none"
       id="path5395-7-6-8"
       sodipodi:cx="730.34027"
       sodipodi:cy="30.009895"
       sodipodi:rx="700.03571"
       sodipodi:ry="18.182745"
       d="m 1430.376,30.009895 a 700.03571,18.182745 0 1 1 -1400.071435,0 700.03571,18.182745 0 1 1 1400.071435,0 z"
       transform="translate(-200.91416,820.40419)" />
    <path
       sodipodi:type="arc"
       style="fill:#ffffff;fill-opacity:0.65895951;stroke:none"
       id="path5395-77-6-57"
       sodipodi:cx="730.34027"
       sodipodi:cy="30.009895"
       sodipodi:rx="700.03571"
       sodipodi:ry="18.182745"
       d="m 1430.376,30.009895 a 700.03571,18.182745 0 1 1 -1400.071435,0 700.03571,18.182745 0 1 1 1400.071435,0 z"
       transform="translate(29.400621,569.88635)" />
    <path
       sodipodi:type="arc"
       style="fill:#ffffff;fill-opacity:0.65895951;stroke:none"
       id="path5395-3-0-6"
       sodipodi:cx="730.34027"
       sodipodi:cy="30.009895"
       sodipodi:rx="700.03571"
       sodipodi:ry="18.182745"
       d="m 1430.376,30.009895 a 700.03571,18.182745 0 1 1 -1400.071435,0 700.03571,18.182745 0 1 1 1400.071435,0 z"
       transform="translate(-340.31521,721.40924)" />
    <path
       sodipodi:type="arc"
       style="fill:#ffffff;fill-opacity:0.65895951;stroke:none"
       id="path5395-35-3-18"
       sodipodi:cx="730.34027"
       sodipodi:cy="30.009895"
       sodipodi:rx="700.03571"
       sodipodi:ry="18.182745"
       d="m 1430.376,30.009895 a 700.03571,18.182745 0 1 1 -1400.071435,0 700.03571,18.182745 0 1 1 1400.071435,0 z"
       transform="translate(92.030071,1218.4043)" />
    <path
       sodipodi:type="arc"
       style="fill:#ffffff;fill-opacity:0.65895951;stroke:none"
       id="path5395-9-8-9"
       sodipodi:cx="730.34027"
       sodipodi:cy="30.009895"
       sodipodi:rx="700.03571"
       sodipodi:ry="18.182745"
       d="m 1430.376,30.009895 a 700.03571,18.182745 0 1 1 -1400.071435,0 700.03571,18.182745 0 1 1 1400.071435,0 z"
       transform="translate(-536.28481,1014.3535)" />
    <path
       sodipodi:type="arc"
       style="fill:#ffffff;fill-opacity:0.65895951;stroke:none"
       id="path5395-98-0-2"
       sodipodi:cx="730.34027"
       sodipodi:cy="30.009895"
       sodipodi:rx="700.03571"
       sodipodi:ry="18.182745"
       d="m 1430.376,30.009895 a 700.03571,18.182745 0 1 1 -1400.071435,0 700.03571,18.182745 0 1 1 1400.071435,0 z"
       transform="translate(81.928541,1076.9829)" />
    <path
       sodipodi:type="arc"
       style="fill:#ffffff;fill-opacity:0.65895951;stroke:none"
       id="path5395-1-1-7"
       sodipodi:cx="730.34027"
       sodipodi:cy="30.009895"
       sodipodi:rx="700.03571"
       sodipodi:ry="18.182745"
       d="m 1430.376,30.009895 a 700.03571,18.182745 0 1 1 -1400.071435,0 700.03571,18.182745 0 1 1 1400.071435,0 z"
       transform="translate(-380.72132,1333.5617)" />
    <path
       sodipodi:type="arc"
       style="fill:#ffffff;fill-opacity:0.65895951;stroke:none"
       id="path5395-8-2-9"
       sodipodi:cx="730.34027"
       sodipodi:cy="30.009895"
       sodipodi:rx="700.03571"
       sodipodi:ry="18.182745"
       d="m 1430.376,30.009895 a 700.03571,18.182745 0 1 1 -1400.071435,0 700.03571,18.182745 0 1 1 1400.071435,0 z"
       transform="translate(-546.38634,1188.0997)" />
  </g>
</svg>
