<?xml version="1.0" encoding="UTF-8" standalone="no"?>
<!-- Created with Inkscape (http://www.inkscape.org/) -->

<svg
   xmlns:dc="http://purl.org/dc/elements/1.1/"
   xmlns:cc="http://creativecommons.org/ns#"
   xmlns:rdf="http://www.w3.org/1999/02/22-rdf-syntax-ns#"
   xmlns:svg="http://www.w3.org/2000/svg"
   xmlns="http://www.w3.org/2000/svg"
   xmlns:sodipodi="http://sodipodi.sourceforge.net/DTD/sodipodi-0.dtd"
   xmlns:inkscape="http://www.inkscape.org/namespaces/inkscape"
   width="744.09448819"
   height="1052.3622047"
   id="svg2993"
   version="1.1"
   inkscape:version="0.48.4 r9939"
   sodipodi:docname="pierce.svg"
   inkscape:export-filename="C:\werk\orthos\data\placeholder\card\pierce.png"
   inkscape:export-xdpi="91.190002"
   inkscape:export-ydpi="91.190002">
  <defs
     id="defs2995" />
  <sodipodi:namedview
     id="base"
     pagecolor="#ffffff"
     bordercolor="#ffffff"
     borderopacity="0.0"
     inkscape:pageopacity="0.0"
     inkscape:pageshadow="0"
     inkscape:zoom="0.5"
     inkscape:cx="131.90551"
     inkscape:cy="899.78808"
     inkscape:document-units="px"
     inkscape:current-layer="layer1"
     showgrid="false"
     inkscape:window-width="1426"
     inkscape:window-height="918"
     inkscape:window-x="2104"
     inkscape:window-y="363"
     inkscape:window-maximized="0" />
  <metadata
     id="metadata2998">
    <rdf:RDF>
      <cc:Work
         rdf:about="">
        <dc:format>image/svg+xml</dc:format>
        <dc:type
           rdf:resource="http://purl.org/dc/dcmitype/StillImage" />
        <dc:title></dc:title>
      </cc:Work>
    </rdf:RDF>
  </metadata>
  <g
     inkscape:label="Layer 1"
     inkscape:groupmode="layer"
     id="layer1">
    <path
       style="fill:#502d16;fill-opacity:1;stroke:none;stroke-width:0.01065628000000000;stroke-linejoin:round;stroke-miterlimit:4;stroke-opacity:1"
       d="m -162.63586,-390.01658 48.58923,2.22473 53.825454,728.24715 -40.017804,57.77525 z"
       id="rect3001"
       inkscape:connector-curvature="0"
       sodipodi:nodetypes="ccccc" />
    <rect
       style="fill:none;fill-opacity:1;stroke:#000000;stroke-width:1;stroke-linejoin:round;stroke-miterlimit:4;stroke-opacity:1;stroke-dasharray:none"
       id="rect3773"
       width="1422.8572"
       height="1422.8572"
       x="-677.14288"
       y="-310.49496" />
    <path
       style="fill:#502d16;fill-opacity:1;stroke:none"
       d="m -96.921618,478.23862 37.160652,56.51044 -151.888834,628.24724 -57.16066,3.4895 z"
       id="rect3001-1"
       inkscape:connector-curvature="0"
       sodipodi:nodetypes="ccccc" />
    <path
       style="fill:#ffaaaa;fill-opacity:1;stroke:none"
       d="m -734.28571,403.79074 1157.14284,20 -0.42005,31.28929 -1148.15135,14.42499 z"
       id="rect3796"
       inkscape:connector-curvature="0"
       sodipodi:nodetypes="ccccc" />
    <rect
       style="fill:#782121;fill-opacity:1;stroke:none"
       id="rect3794"
       width="248.57143"
       height="222.85715"
       x="457.14285"
       y="326.64789"
       ry="60" />
    <path
       style="fill:#502d16;fill-opacity:1;stroke:none"
       d="m -69.087597,387.09262 48.711842,-66.1011 18.2219769,7.40592 z"
       id="rect3799"
       inkscape:connector-curvature="0"
       sodipodi:nodetypes="cccc"
       inkscape:transform-center-x="-29.408565"
       inkscape:transform-center-y="-11.642868" />
    <path
       style="fill:#502d16;fill-opacity:1;stroke:none"
       d="m -65.860832,483.89784 83.850538,57.28165 2.503897,32.46529 z"
       id="rect3799-7"
       inkscape:connector-curvature="0"
       sodipodi:nodetypes="cccc"
       inkscape:transform-center-x="-21.908976"
       inkscape:transform-center-y="45.562966" />
    <path
       style="fill:#502d16;fill-opacity:1;stroke:none"
       d="M -34.124826,477.06351 79.46172,500.22369 64.268378,532.4463 z"
       id="rect3799-7-4"
       inkscape:connector-curvature="0"
       sodipodi:nodetypes="cccc"
       inkscape:transform-center-x="-27.311941"
       inkscape:transform-center-y="34.381557" />
    <path
       style="fill:#502d16;fill-opacity:1;stroke:none"
       d="m -24.895481,388.26988 54.426128,-57.52967 41.07912,15.97735 z"
       id="rect3799-0"
       inkscape:connector-curvature="0"
       sodipodi:nodetypes="cccc"
       inkscape:transform-center-x="-29.408565"
       inkscape:transform-center-y="-11.642868" />
    <path
       sodipodi:type="arc"
       style="fill:#241c1c;fill-opacity:0.82539684;stroke:none"
       id="path3856"
       sodipodi:cx="371.42856"
       sodipodi:cy="360.93362"
       sodipodi:rx="134.28572"
       sodipodi:ry="108.57143"
       d="m 505.71428,360.93362 a 134.28572,108.57143 0 1 1 -268.57144,0 134.28572,108.57143 0 1 1 268.57144,0 z" />
    <path
       sodipodi:type="arc"
       style="fill:#241c1c;fill-opacity:0.82539685;stroke:none"
       id="path3858"
       sodipodi:cx="511.42856"
       sodipodi:cy="390.93362"
       sodipodi:rx="88.571426"
       sodipodi:ry="78.571426"
       d="m 599.99998,390.93362 a 88.571426,78.571426 0 1 1 -177.14285,0 88.571426,78.571426 0 1 1 177.14285,0 z" />
    <path
       sodipodi:type="arc"
       style="fill:#241c1c;fill-opacity:0.82539685;stroke:none"
       id="path3860"
       sodipodi:cx="425.71429"
       sodipodi:cy="532.36218"
       sodipodi:rx="120"
       sodipodi:ry="148.57143"
       d="m 545.71429,532.36218 a 120,148.57143 0 1 1 -240,0 120,148.57143 0 1 1 240,0 z" />
    <path
       sodipodi:type="arc"
       style="fill:#241c1c;fill-opacity:0.68783069;stroke:none"
       id="path3862"
       sodipodi:cx="315.71429"
       sodipodi:cy="485.21933"
       sodipodi:rx="115.71429"
       sodipodi:ry="127.14286"
       d="m 431.42858,485.21933 a 115.71429,127.14286 0 1 1 -231.42857,0 115.71429,127.14286 0 1 1 231.42857,0 z" />
    <path
       sodipodi:type="arc"
       style="fill:#241c1c;fill-opacity:0.48677248;stroke:none"
       id="path3864"
       sodipodi:cx="248.57143"
       sodipodi:cy="275.21933"
       sodipodi:rx="120"
       sodipodi:ry="62.857143"
       d="m 368.57143,275.21933 a 120,62.857143 0 1 1 -240,0 120,62.857143 0 1 1 240,0 z" />
    <path
       sodipodi:type="arc"
       style="fill:#241c1c;fill-opacity:0.48677248;stroke:none"
       id="path3866"
       sodipodi:cx="470"
       sodipodi:cy="229.50504"
       sodipodi:rx="101.42857"
       sodipodi:ry="65.714287"
       d="m 571.42857,229.50504 a 101.42857,65.714287 0 1 1 -202.85714,0 101.42857,65.714287 0 1 1 202.85714,0 z" />
    <path
       sodipodi:type="arc"
       style="fill:#241c1c;fill-opacity:0.31216931;stroke:none"
       id="path3868"
       sodipodi:cx="274.28571"
       sodipodi:cy="388.07648"
       sodipodi:rx="97.14286"
       sodipodi:ry="64.285713"
       d="m 371.42857,388.07648 a 97.14286,64.285713 0 1 1 -194.28572,0 97.14286,64.285713 0 1 1 194.28572,0 z" />
    <path
       sodipodi:type="arc"
       style="fill:#241c1c;fill-opacity:0.31216933;stroke:none"
       id="path3870"
       sodipodi:cx="405.71429"
       sodipodi:cy="283.79074"
       sodipodi:rx="100"
       sodipodi:ry="62.857143"
       d="m 505.71429,283.79074 a 100,62.857143 0 1 1 -200,0 100,62.857143 0 1 1 200,0 z" />
    <path
       sodipodi:type="arc"
       style="fill:#000000;fill-opacity:0.20634921;stroke:none"
       id="path3872"
       sodipodi:cx="497.14285"
       sodipodi:cy="296.64789"
       sodipodi:rx="94.285713"
       sodipodi:ry="55.714287"
       d="m 591.42857,296.64789 a 94.285713,55.714287 0 1 1 -188.57143,0 94.285713,55.714287 0 1 1 188.57143,0 z" />
    <path
       sodipodi:type="arc"
       style="fill:#000000;fill-opacity:1;stroke:none"
       id="path3874"
       sodipodi:cx="458.57144"
       sodipodi:cy="449.50504"
       sodipodi:rx="161.42857"
       sodipodi:ry="162.85715"
       d="m 620.00002,449.50504 a 161.42857,162.85715 0 1 1 -322.85715,0 161.42857,162.85715 0 1 1 322.85715,0 z" />
    <path
       sodipodi:type="arc"
       style="fill:#000000;fill-opacity:1;stroke:none"
       id="path3878"
       sodipodi:cx="368.57144"
       sodipodi:cy="362.36218"
       sodipodi:rx="88.571426"
       sodipodi:ry="84.285713"
       d="m 457.14287,362.36218 a 88.571426,84.285713 0 1 1 -177.14285,0 88.571426,84.285713 0 1 1 177.14285,0 z" />
    <path
       sodipodi:type="arc"
       style="fill:#000000;fill-opacity:1;stroke:none"
       id="path3880"
       sodipodi:cx="510"
       sodipodi:cy="300.93362"
       sodipodi:rx="70"
       sodipodi:ry="62.857143"
       d="m 580,300.93362 a 70,62.857143 0 1 1 -140,0 70,62.857143 0 1 1 140,0 z" />
    <path
       sodipodi:type="arc"
       style="fill:#000000;fill-opacity:1;stroke:none"
       id="path3882"
       sodipodi:cx="342.85715"
       sodipodi:cy="560.93359"
       sodipodi:rx="85.714287"
       sodipodi:ry="80"
       d="m 428.57143,560.93359 a 85.714287,80 0 1 1 -171.42857,0 85.714287,80 0 1 1 171.42857,0 z" />
    <path
       sodipodi:type="arc"
       style="fill:#000000;fill-opacity:1;stroke:none"
       id="path3884"
       sodipodi:cx="538.57141"
       sodipodi:cy="530.93359"
       sodipodi:rx="95.714287"
       sodipodi:ry="90"
       d="m 634.2857,530.93359 a 95.714287,90 0 1 1 -191.42858,0 95.714287,90 0 1 1 191.42858,0 z" />
    <path
       transform="matrix(0.8761062,0,0,0.8761062,58.242743,51.405174)"
       sodipodi:type="arc"
       style="fill:#501616;fill-opacity:1;stroke:none"
       id="path3874-9"
       sodipodi:cx="458.57144"
       sodipodi:cy="449.50504"
       sodipodi:rx="161.42857"
       sodipodi:ry="162.85715"
       d="m 620.00002,449.50504 a 161.42857,162.85715 0 1 1 -322.85715,0 161.42857,162.85715 0 1 1 322.85715,0 z" />
    <path
       transform="matrix(0.87096774,0,0,0.87096774,48.98619,42.470698)"
       sodipodi:type="arc"
       style="fill:#501616;fill-opacity:1;stroke:none"
       id="path3878-4"
       sodipodi:cx="368.57144"
       sodipodi:cy="362.36218"
       sodipodi:rx="88.571426"
       sodipodi:ry="84.285713"
       d="m 457.14287,362.36218 a 88.571426,84.285713 0 1 1 -177.14285,0 88.571426,84.285713 0 1 1 177.14285,0 z" />
    <path
       transform="matrix(0.72727273,0,0,0.72727273,140.51949,77.787092)"
       sodipodi:type="arc"
       style="fill:#501616;fill-opacity:1;stroke:none"
       id="path3880-8"
       sodipodi:cx="510"
       sodipodi:cy="300.93362"
       sodipodi:rx="70"
       sodipodi:ry="62.857143"
       d="m 580,300.93362 a 70,62.857143 0 1 1 -140,0 70,62.857143 0 1 1 140,0 z" />
    <path
       transform="matrix(0.83333334,0,0,0.83333334,58.57144,89.203217)"
       sodipodi:type="arc"
       style="fill:#501616;fill-opacity:1;stroke:none"
       id="path3882-8"
       sodipodi:cx="342.85715"
       sodipodi:cy="560.93359"
       sodipodi:rx="85.714287"
       sodipodi:ry="80"
       d="m 428.57143,560.93359 a 85.714287,80 0 1 1 -171.42857,0 85.714287,80 0 1 1 171.42857,0 z" />
    <path
       transform="matrix(0.84126984,0,0,0.84126984,86.916109,79.989459)"
       sodipodi:type="arc"
       style="fill:#501616;fill-opacity:1;stroke:none"
       id="path3884-2"
       sodipodi:cx="538.57141"
       sodipodi:cy="530.93359"
       sodipodi:rx="95.714287"
       sodipodi:ry="90"
       d="m 634.2857,530.93359 a 95.714287,90 0 1 1 -191.42858,0 95.714287,90 0 1 1 191.42858,0 z" />
    <path
       transform="matrix(0.78761063,0,0,0.78761063,100.70636,83.565333)"
       sodipodi:type="arc"
       style="fill:#d40000;fill-opacity:1;stroke:none"
       id="path3874-9-4"
       sodipodi:cx="458.57144"
       sodipodi:cy="449.50504"
       sodipodi:rx="161.42857"
       sodipodi:ry="162.85715"
       d="m 620.00002,449.50504 a 161.42857,162.85715 0 1 1 -322.85715,0 161.42857,162.85715 0 1 1 322.85715,0 z" />
    <path
       transform="matrix(0.73537452,0,0,0.73537452,100.84406,83.985503)"
       sodipodi:type="arc"
       style="fill:#d40000;fill-opacity:1;stroke:none"
       id="path3878-4-5"
       sodipodi:cx="368.57144"
       sodipodi:cy="362.36218"
       sodipodi:rx="88.571426"
       sodipodi:ry="84.285713"
       d="m 457.14287,362.36218 a 88.571426,84.285713 0 1 1 -177.14285,0 88.571426,84.285713 0 1 1 177.14285,0 z" />
    <path
       transform="matrix(0.64564008,0,0,0.64564008,184.03422,94.734061)"
       sodipodi:type="arc"
       style="fill:#d40000;fill-opacity:1;stroke:none"
       id="path3880-8-5"
       sodipodi:cx="510"
       sodipodi:cy="300.93362"
       sodipodi:rx="70"
       sodipodi:ry="62.857143"
       d="m 580,300.93362 a 70,62.857143 0 1 1 -140,0 70,62.857143 0 1 1 140,0 z" />
    <path
       transform="matrix(0.6904762,0,0,0.6904762,109.43311,161.71754)"
       sodipodi:type="arc"
       style="fill:#d40000;fill-opacity:1;stroke:none"
       id="path3882-8-1"
       sodipodi:cx="342.85715"
       sodipodi:cy="560.93359"
       sodipodi:rx="85.714287"
       sodipodi:ry="80"
       d="m 428.57143,560.93359 a 85.714287,80 0 1 1 -171.42857,0 85.714287,80 0 1 1 171.42857,0 z" />
    <path
       transform="matrix(0.69201611,0,0,0.69201611,169.18198,151.61423)"
       sodipodi:type="arc"
       style="fill:#d40000;fill-opacity:1;stroke:none"
       id="path3884-2-7"
       sodipodi:cx="538.57141"
       sodipodi:cy="530.93359"
       sodipodi:rx="95.714287"
       sodipodi:ry="90"
       d="m 634.2857,530.93359 a 95.714287,90 0 1 1 -191.42858,0 95.714287,90 0 1 1 191.42858,0 z" />
    <path
       sodipodi:type="arc"
       style="fill:#ffaaaa;fill-opacity:1;stroke:none"
       id="path3946"
       sodipodi:cx="472.85715"
       sodipodi:cy="458.07648"
       sodipodi:rx="84.285713"
       sodipodi:ry="68.571426"
       d="m 557.14286,458.07648 a 84.285713,68.571426 0 1 1 -168.57143,0 84.285713,68.571426 0 1 1 168.57143,0 z"
       transform="matrix(1.3389831,0,0,1.4374999,-171.71913,-238.97989)" />
    <path
       sodipodi:type="arc"
       style="fill:#d40000;fill-opacity:1;stroke:none"
       id="path3948"
       sodipodi:cx="435.71429"
       sodipodi:cy="468.07648"
       sodipodi:rx="75.714287"
       sodipodi:ry="58.57143"
       d="m 511.42858,468.07648 a 75.714287,58.57143 0 1 1 -151.42857,0 75.714287,58.57143 0 1 1 151.42857,0 z"
       transform="matrix(1.490566,0,0,1.6341463,-182.31806,-325.4004)" />
    <path
       sodipodi:type="arc"
       style="fill:#ff8080;fill-opacity:1;stroke:none"
       id="path3950"
       sodipodi:cx="341.42856"
       sodipodi:cy="549.50507"
       sodipodi:rx="32.857143"
       sodipodi:ry="34.285713"
       d="m 374.2857,549.50507 a 32.857143,34.285713 0 1 1 -65.71429,0 32.857143,34.285713 0 1 1 65.71429,0 z" />
    <path
       sodipodi:type="arc"
       style="fill:#ff8080;fill-opacity:1;stroke:none"
       id="path3952"
       sodipodi:cx="548.57141"
       sodipodi:cy="522.36218"
       sodipodi:rx="42.857143"
       sodipodi:ry="38.57143"
       d="m 591.42855,522.36218 a 42.857143,38.57143 0 1 1 -85.71428,0 42.857143,38.57143 0 1 1 85.71428,0 z"
       transform="translate(3.5355339,3.5355339)" />
    <path
       sodipodi:type="arc"
       style="fill:#ffaaaa;fill-opacity:1;stroke:none"
       id="path3956"
       sodipodi:cx="348.57144"
       sodipodi:cy="335.21933"
       sodipodi:rx="14.285714"
       sodipodi:ry="14.285714"
       d="m 362.85716,335.21933 a 14.285714,14.285714 0 1 1 -28.57143,0 14.285714,14.285714 0 1 1 28.57143,0 z" />
    <path
       sodipodi:type="arc"
       style="fill:#ffaaaa;fill-opacity:1;stroke:none"
       id="path3958"
       sodipodi:cx="508.57144"
       sodipodi:cy="285.21933"
       sodipodi:rx="22.857143"
       sodipodi:ry="15.714286"
       d="m 531.42859,285.21933 a 22.857143,15.714286 0 1 1 -45.71429,0 22.857143,15.714286 0 1 1 45.71429,0 z" />
    <path
       sodipodi:type="arc"
       style="fill:#d40000;fill-opacity:1;stroke:none"
       id="path3960"
       sodipodi:cx="352.85715"
       sodipodi:cy="568.07648"
       sodipodi:rx="30"
       sodipodi:ry="30"
       d="m 382.85715,568.07648 a 30,30 0 1 1 -60,0 30,30 0 1 1 60,0 z"
       transform="matrix(1.1904762,0,0,1.0952381,-70.068028,-62.67395)" />
    <path
       sodipodi:type="arc"
       style="fill:#d40000;fill-opacity:1;stroke:none"
       id="path3962"
       sodipodi:cx="551.42859"
       sodipodi:cy="535.2193"
       sodipodi:rx="37.142857"
       sodipodi:ry="34.285713"
       d="m 588.57145,535.2193 a 37.142857,34.285713 0 1 1 -74.28572,0 37.142857,34.285713 0 1 1 74.28572,0 z"
       transform="matrix(1.1538462,0,0,1.0416667,-75.585349,-20.193842)" />
    <path
       sodipodi:type="arc"
       style="fill:#ffaaaa;fill-opacity:1;stroke:none"
       id="path3964"
       sodipodi:cx="431.42856"
       sodipodi:cy="462.36218"
       sodipodi:rx="48.57143"
       sodipodi:ry="35.714287"
       d="m 479.99999,462.36218 a 48.57143,35.714287 0 1 1 -97.14286,0 48.57143,35.714287 0 1 1 97.14286,0 z"
       transform="translate(-20,14.285714)" />
    <path
       sodipodi:type="arc"
       style="fill:#ffaaaa;fill-opacity:1;stroke:none"
       id="path3966"
       sodipodi:cx="518.57141"
       sodipodi:cy="415.21933"
       sodipodi:rx="55.714287"
       sodipodi:ry="57.142857"
       d="m 574.2857,415.21933 a 55.714287,57.142857 0 1 1 -111.42858,0 55.714287,57.142857 0 1 1 111.42858,0 z"
       transform="translate(-25.714286,14.285714)" />
    <path
       sodipodi:type="arc"
       style="fill:#d40000;fill-opacity:1;stroke:none"
       id="path3968"
       sodipodi:cx="430"
       sodipodi:cy="500.93362"
       sodipodi:rx="64.285713"
       sodipodi:ry="31.428572"
       d="m 494.28571,500.93362 a 64.285713,31.428572 0 1 1 -128.57142,0 64.285713,31.428572 0 1 1 128.57142,0 z"
       transform="matrix(1.2034896,0,0,1.449977,-74.419062,-239.55076)" />
    <path
       sodipodi:type="arc"
       style="fill:#d40000;fill-opacity:1;stroke:none"
       id="path3970"
       sodipodi:cx="502.85715"
       sodipodi:cy="445.21933"
       sodipodi:rx="54.285713"
       sodipodi:ry="50"
       d="m 557.14286,445.21933 a 54.285713,50 0 1 1 -108.57143,0 54.285713,50 0 1 1 108.57143,0 z"
       transform="matrix(1.3421053,0,0,1.0857143,-164.88722,-45.304514)" />
    <path
       sodipodi:type="arc"
       style="fill:#d40000;fill-opacity:1;stroke:none"
       id="path3972"
       sodipodi:cx="352.5"
       sodipodi:cy="341.36218"
       sodipodi:rx="16.5"
       sodipodi:ry="14"
       d="m 369,341.36218 a 16.5,14 0 1 1 -33,0 16.5,14 0 1 1 33,0 z" />
    <path
       sodipodi:type="arc"
       style="fill:#d40000;fill-opacity:1;stroke:none"
       id="path3974"
       sodipodi:cx="517"
       sodipodi:cy="291.86218"
       sodipodi:rx="23"
       sodipodi:ry="13.5"
       d="m 540,291.86218 a 23,13.5 0 1 1 -46,0 23,13.5 0 1 1 46,0 z" />
  </g>
</svg>
